<svg width="44" height="44" viewBox="0 0 44 44" fill="none" xmlns="http://www.w3.org/2000/svg">
<path d="M0 43.9997C0 43.9997 1.40837 37.6388 5.40134 33.6613C13.898 25.1646 27.0686 11.994 33.6307 5.43195C37.6546 1.40803 44 0.0151367 44 0.0151367C44 0.0151367 42.5916 6.36055 38.5677 10.3845C32.4235 16.5287 18.9898 29.9624 10.3539 38.5983C6.36089 42.5913 0 43.9997 0 43.9997Z" fill="white"/>
<path d="M0 0C0 0 6.36089 1.40837 10.3384 5.40134C18.835 13.898 32.0056 27.0686 38.5677 33.6307C42.5916 37.6546 43.9845 44 43.9845 44C43.9845 44 37.6391 42.5916 33.6152 38.5677C27.4865 32.4235 14.0528 18.9898 5.41681 10.3539C1.42385 6.36089 0 0 0 0Z" fill="white"/>
</svg>
