<svg xmlns="http://www.w3.org/2000/svg">
    

    

    <symbol viewBox="0 0 148 48" id="header-logo">
    
        <path d="M46.5143 20.3348V42.7066C46.5164 43.3328 46.3971 43.9533 46.1633 44.5323C45.9294 45.1113 45.5856 45.6374 45.1517 46.0802C44.7177 46.5231 44.2022 46.8739 43.6348 47.1125C43.0674 47.3512 42.4593 47.4729 41.8456 47.4707H27.4212C27.3998 47.4717 27.3787 47.4662 27.3604 47.4549C27.3422 47.4435 27.3277 47.4268 27.3189 47.407C27.31 47.3871 27.3072 47.365 27.3108 47.3435C27.3145 47.3221 27.3243 47.3022 27.3391 47.2865C29.136 44.9756 30.3586 42.7066 34.8877 42.7066H39.0641C39.8005 42.7022 40.5055 42.4018 41.0262 41.8704C41.5469 41.3391 41.8413 40.6197 41.8456 39.8683V22.1265C41.8457 21.5644 41.7235 21.0092 41.488 20.501C41.2525 19.9929 40.9094 19.5443 40.4836 19.1877L25.0253 6.22679C24.5254 5.80916 23.8991 5.58097 23.253 5.58097C22.6069 5.58097 21.9807 5.80916 21.4807 6.22679L6.01429 19.1877C5.58843 19.5443 5.24538 19.9929 5.00986 20.501C4.77434 21.0092 4.6522 21.5644 4.65225 22.1265V39.8683C4.65659 40.6226 4.95328 41.3445 5.47752 41.8763C6.00176 42.4081 6.71095 42.7066 7.45016 42.7066H11.6265C16.1557 42.7066 17.37 44.9589 19.1751 47.2697C19.19 47.2854 19.1998 47.3053 19.2034 47.3268C19.207 47.3483 19.2042 47.3704 19.1954 47.3902C19.1866 47.4101 19.1721 47.4268 19.1538 47.4381C19.1356 47.4495 19.1144 47.455 19.0931 47.4539H4.65225C4.04131 47.4539 3.43635 47.3311 2.87191 47.0925C2.30748 46.854 1.79462 46.5043 1.36262 46.0635C0.930616 45.6226 0.587934 45.0993 0.354137 44.5233C0.12034 43.9473 5.80637e-06 43.33 5.80637e-06 42.7066V20.3348C-0.00108221 19.6332 0.15075 18.9402 0.444504 18.306C0.738258 17.6717 1.16658 17.112 1.69844 16.6675L20.2664 1.09433C21.1104 0.386776 22.1689 0 23.2612 0C24.3536 0 25.412 0.386776 26.2561 1.09433L44.8158 16.6675C45.3468 17.1128 45.7745 17.6726 46.0682 18.3067C46.3619 18.9408 46.5142 19.6334 46.5143 20.3348Z" fill="#FBFBFB"/>
        <path d="M32.549 27.2089C32.4999 25.2736 31.8702 23.4002 30.7448 21.8416C29.6195 20.283 28.0526 19.1142 26.2558 18.4929C26.0178 18.4092 25.7717 18.3422 25.5255 18.2752C25.2794 18.2082 24.9922 18.1496 24.705 18.1078L24.2373 18.0492C23.6045 17.9822 22.9666 17.9822 22.3338 18.0492L21.8661 18.1078C21.5871 18.1496 21.3163 18.2082 21.0456 18.2752C20.7748 18.3422 20.5533 18.4092 20.3153 18.4929C18.504 19.1005 16.9206 20.2636 15.7811 21.8234C14.6416 23.3833 14.0015 25.264 13.9482 27.2089C13.9482 27.3763 13.9482 27.5438 13.9482 27.7112C13.9482 27.8787 13.9482 27.8787 13.9482 27.9624C13.9824 29.8459 14.5525 31.6785 15.5892 33.2372L23.0476 43.2844C23.0698 43.314 23.0984 43.3379 23.1311 43.3543C23.1638 43.3708 23.1998 43.3794 23.2363 43.3794C23.2728 43.3794 23.3088 43.3708 23.3415 43.3543C23.3742 43.3379 23.4028 43.314 23.425 43.2844L30.8916 33.2372C31.9283 31.6785 32.4985 29.8459 32.5326 27.9624C32.5326 27.8787 32.5326 27.795 32.5326 27.7112C32.5326 27.6275 32.5572 27.3763 32.549 27.2089ZM27.8968 27.8871C27.8769 28.8283 27.5921 29.7439 27.0763 30.5245L26.7727 30.9347L23.3594 35.5397C23.3478 35.5538 23.3334 35.5651 23.3171 35.5729C23.3008 35.5806 23.283 35.5847 23.265 35.5847C23.247 35.5847 23.2293 35.5806 23.213 35.5729C23.1967 35.5651 23.1822 35.5538 23.1707 35.5397L19.6918 30.9012V30.851L19.503 30.5914L19.4538 30.5245C18.9342 29.7458 18.6489 28.829 18.6333 27.8871C18.6292 27.8453 18.6292 27.8032 18.6333 27.7615C18.6333 27.6777 18.6333 27.594 18.6333 27.5103C18.6573 26.539 18.9744 25.599 19.5412 24.8183C20.1079 24.0377 20.8969 23.4544 21.8004 23.1481L22.1615 23.0393C22.2963 23.0025 22.4334 22.9745 22.5717 22.9555H22.8015C22.96 22.9472 23.1188 22.9472 23.2773 22.9555C23.4359 22.947 23.5947 22.947 23.7532 22.9555H23.9912C24.1268 22.9746 24.2611 23.0025 24.3932 23.0393L24.7625 23.1481C25.658 23.4632 26.4379 24.0496 26.998 24.8291C27.5581 25.6086 27.8717 26.544 27.8968 27.5103V27.8871Z" fill="#FBFBFB"/>
        <path d="M91.619 44.1728V47.5062H74V44.1728H75.5484L81.1335 31.2966H84.4367L90.0218 44.1728H91.619ZM82.7742 35.379L79.0526 44.1728H86.4958L82.7742 35.379Z" fill="#FBFBFB"/>
        <path d="M101.801 31.2968C102.883 31.2893 103.955 31.4964 104.95 31.9049C105.911 32.2926 106.787 32.8502 107.532 33.5485C108.28 34.2468 108.881 35.0763 109.301 35.9919C109.733 36.9443 109.952 37.9726 109.943 39.0106C109.948 40.0258 109.745 41.0322 109.344 41.9722C108.943 42.9122 108.353 43.7675 107.607 44.4891C106.875 45.1984 106.008 45.7674 105.053 46.1656C104.062 46.581 102.992 46.7973 101.91 46.8011C100.815 46.8107 99.7294 46.6056 98.7205 46.1984C97.756 45.8138 96.8775 45.2559 96.1326 44.5549C95.3862 43.8544 94.7909 43.0205 94.3805 42.1005C93.9475 41.1483 93.7272 40.1202 93.7335 39.0818C93.7285 38.0422 93.9407 37.0122 94.3576 36.0522C94.7537 35.1296 95.3376 34.2915 96.0753 33.5869C96.8186 32.8781 97.6946 32.3094 98.6575 31.9104C99.6494 31.4992 100.72 31.2902 101.801 31.2968ZM105.208 42.3142C105.652 41.8952 106.003 41.3937 106.238 40.8404C106.712 39.7042 106.712 38.4375 106.238 37.3013C105.995 36.7392 105.632 36.2318 105.173 35.8111C104.732 35.4037 104.213 35.0819 103.645 34.8633C103.061 34.6459 102.439 34.5363 101.812 34.5401C101.181 34.5235 100.552 34.6345 99.9681 34.8658C99.3841 35.097 98.8576 35.4434 98.4228 35.8824C97.9831 36.3 97.6347 36.7973 97.3979 37.3451C96.9246 38.4738 96.9246 39.7337 97.3979 40.8623C97.6424 41.4205 98.005 41.9241 98.4629 42.3415C98.8988 42.763 99.4186 43.0965 99.9916 43.3222C100.573 43.5484 101.196 43.662 101.824 43.6564C102.464 43.6505 103.097 43.5297 103.69 43.3003C104.267 43.0849 104.786 42.7479 105.208 42.3142Z" fill="#FBFBFB"/>
        <path d="M112.762 47.5062V31.2966H116.12L120.866 39.9989L125.613 31.2966H128.971V47.5062H125.613V37.06L122.065 43.5667H119.691L116.12 37.06V47.5062H112.762Z" fill="#FBFBFB"/>
        <path d="M138.572 31.2966H141.907L148 45.1505V47.5062H145.422L143.612 43.3323H136.811L135.045 47.5062H132.495V45.1505L138.572 31.2966ZM140.217 35.379L138.248 39.9989H142.186L140.217 35.379Z" fill="#FBFBFB"/>
        <path d="M62.3501 45.5047H62.1837L60.1636 47.5062H57.7935V45.1578L58.97 44.0206C58.1676 43.0168 57.7507 41.7635 57.7935 40.4838C57.7869 39.7713 57.9134 39.0638 58.1666 38.3969C58.3812 37.8197 58.7088 37.2902 59.1307 36.8389C59.5336 36.4159 60.0226 36.0825 60.5654 35.8609C61.1247 35.6353 61.7233 35.5213 62.3272 35.5254H70.4762V47.5062H67.0904V45.5047H62.3501ZM67.0904 38.8518H62.3731C62.2587 38.8622 62.1475 38.8951 62.046 38.9485C61.7026 39.0984 61.4326 39.3762 61.2942 39.7218C61.1924 39.9648 61.1435 40.2264 61.1507 40.4894C61.1176 40.9419 61.2568 41.3903 61.541 41.7461C61.6452 41.8719 61.7755 41.974 61.923 42.0456C62.0705 42.1173 62.2318 42.1567 62.396 42.1612H67.0904V38.8518Z" fill="#FBFBFB"/>


    </symbol>


    <symbol viewBox="0 0 80 80" fill="none" id="quiz-thanks">
        
        <circle cx="40" cy="40" r="38.5" stroke="#FBFBFB" stroke-width="3"/>
        <path fill-rule="evenodd" clip-rule="evenodd" d="M54.0721 29.5825C54.7032 30.2379 54.7032 31.3006 54.0721 31.956L36.2943 50.4175C35.6631 51.073 34.6399 51.073 34.0087 50.4175L25.9279 42.0259C25.2967 41.3705 25.2967 40.3078 25.9279 39.6524C26.559 38.997 27.5823 38.997 28.2135 39.6524L35.1515 46.8573L51.7865 29.5825C52.4176 28.9271 53.4409 28.9271 54.0721 29.5825Z" fill="#FBFBFB"/>


    </symbol>
    
    <symbol viewBox="0 0 35 35" fill="none" id="quiz-inst">
        
        <path d="M22.0599 8.68402H12.8532C10.5493 8.68402 8.6748 10.5585 8.6748 12.8624V22.1536C8.6748 24.4575 10.5493 26.332 12.8532 26.332H22.0599C24.3638 26.332 26.2383 24.4575 26.2383 22.1536V12.8624C26.2383 10.5585 24.3638 8.68402 22.0599 8.68402ZM17.4741 23.0713C14.3512 23.0713 11.8106 20.5577 11.8106 17.4681C11.8106 14.3785 14.3515 11.8648 17.4741 11.8648C20.5967 11.8648 23.1377 14.3785 23.1377 17.4681C23.1377 20.5577 20.5971 23.0713 17.4741 23.0713ZM23.2385 12.9682C22.5025 12.9682 21.9059 12.3716 21.9059 11.6356C21.9059 10.8996 22.5025 10.303 23.2385 10.303C23.9745 10.303 24.5711 10.8996 24.5711 11.6356C24.5711 12.3716 23.9745 12.9682 23.2385 12.9682Z" fill="#FBFBFB"/>
        <path d="M17.5 0C7.83511 0 0 7.83511 0 17.5C0 27.1649 7.83511 35 17.5 35C27.1649 35 35 27.1649 35 17.5C35 7.83511 27.1649 0 17.5 0ZM28.3051 22.1536C28.3051 25.5974 25.5033 28.3988 22.0599 28.3988H12.8532C9.40937 28.3988 6.60793 25.597 6.60793 22.1536V12.8624C6.60793 9.4186 9.40973 6.61715 12.8532 6.61715H22.0599C25.5037 6.61715 28.3051 9.41895 28.3051 12.8624V22.1536Z" fill="#FBFBFB"/>
        <path d="M17.4742 13.9277C15.4886 13.9277 13.8735 15.5158 13.8735 17.4681C13.8735 19.4203 15.4886 21.0084 17.4742 21.0084C19.4598 21.0084 21.0748 19.4203 21.0748 17.4681C21.0748 15.5158 19.4598 13.9277 17.4742 13.9277Z" fill="#FBFBFB"/>


    </symbol>

    <symbol viewBox="0 0 35 35" fill="none" id="quiz-vk">
        <path d="M17.5 0C7.83511 0 0 7.83511 0 17.5C0 27.1649 7.83511 35 17.5 35C27.1649 35 35 27.1649 35 17.5C35 7.83511 27.1649 0 17.5 0ZM25.0888 19.8131C25.2265 19.9835 25.5541 20.3153 26.0722 20.8093H26.0843L26.0963 20.821L26.1084 20.8334L26.1329 20.8575C27.2742 21.9179 28.0471 22.8126 28.452 23.5412C28.4765 23.5813 28.5028 23.6324 28.5312 23.6931C28.5592 23.7538 28.5876 23.8609 28.616 24.0146C28.644 24.169 28.6419 24.306 28.61 24.4273C28.5777 24.5483 28.4765 24.6605 28.3065 24.7613C28.1366 24.8628 27.8977 24.9132 27.59 24.9132L24.4816 24.9621C24.2875 25.0026 24.0607 24.9824 23.8017 24.9014C23.5422 24.8202 23.3322 24.7311 23.1703 24.6342L22.9272 24.488C22.6841 24.318 22.4009 24.059 22.0773 23.7112C21.7533 23.363 21.4761 23.0493 21.2454 22.77C21.0148 22.4907 20.7678 22.2565 20.5044 22.0656C20.2411 21.8754 20.0126 21.8125 19.8185 21.8775C19.7943 21.886 19.7617 21.9002 19.7212 21.9201C19.6804 21.9403 19.6119 21.9985 19.5147 22.0961C19.4174 22.1933 19.3305 22.3129 19.2535 22.4542C19.1765 22.5961 19.1076 22.8066 19.0469 23.0859C18.9863 23.3648 18.9596 23.6789 18.9682 24.027C18.9682 24.148 18.9536 24.2598 18.9256 24.361C18.8972 24.4621 18.8667 24.537 18.8344 24.5852L18.7857 24.6459C18.6399 24.8003 18.4255 24.889 18.1423 24.9132H16.7459C16.171 24.9458 15.5801 24.8791 14.9732 24.713C14.3664 24.5466 13.8337 24.3326 13.3766 24.0692C12.9188 23.8066 12.5022 23.5394 12.126 23.2683C11.7495 22.9968 11.4641 22.7643 11.27 22.5702L10.9666 22.2785C10.8857 22.1979 10.7743 22.0762 10.6327 21.914C10.4911 21.7522 10.2018 21.3842 9.76461 20.8093C9.32739 20.2344 8.89834 19.6236 8.47745 18.9756C8.05656 18.3279 7.56079 17.4737 6.98978 16.4133C6.41913 15.3533 5.89106 14.2525 5.40523 13.1108C5.35661 12.9816 5.33212 12.8723 5.33212 12.7832C5.33212 12.6945 5.34419 12.6296 5.36867 12.5888L5.41729 12.516C5.53866 12.362 5.76934 12.285 6.10931 12.285L9.43634 12.2609C9.53358 12.2772 9.62656 12.3034 9.71564 12.34C9.80471 12.3762 9.86966 12.4106 9.91011 12.4429L9.9708 12.4795C10.1003 12.5689 10.1972 12.6981 10.2622 12.8681C10.424 13.2733 10.6103 13.6921 10.8207 14.1251C11.0312 14.558 11.1973 14.8881 11.3186 15.1145L11.5128 15.4669C11.7473 15.9524 11.9741 16.3736 12.1927 16.7295C12.4117 17.0859 12.6076 17.3634 12.7818 17.5614C12.9557 17.7598 13.1236 17.9159 13.2858 18.0288C13.4476 18.1423 13.5853 18.1991 13.6988 18.1991C13.8121 18.1991 13.9214 18.1789 14.0268 18.1384C14.0427 18.1303 14.063 18.11 14.0874 18.0777C14.1119 18.0455 14.1602 17.9564 14.2333 17.8102C14.3061 17.6647 14.3607 17.4744 14.3973 17.2395C14.4338 17.0053 14.4721 16.6774 14.5126 16.2565C14.5531 15.8352 14.5531 15.3295 14.5126 14.7387C14.4963 14.4146 14.4597 14.1194 14.4033 13.8522C14.3465 13.5853 14.2897 13.399 14.2333 13.2936L14.1602 13.1481C13.9579 12.873 13.614 12.6988 13.1282 12.6257C13.0228 12.6101 13.043 12.5128 13.1889 12.3347C13.3266 12.1807 13.4802 12.0596 13.6502 11.9702C14.0793 11.7601 15.0467 11.6629 16.5525 11.6785C17.2161 11.687 17.7626 11.7392 18.1917 11.8364C18.3535 11.8772 18.4891 11.9315 18.5984 12.0004C18.7077 12.0689 18.7907 12.1665 18.8475 12.2914C18.9039 12.417 18.9465 12.5465 18.9749 12.68C19.0033 12.8138 19.0175 12.9983 19.0175 13.2325C19.0175 13.4675 19.0136 13.6903 19.0054 13.9004C18.9973 14.1109 18.9873 14.3965 18.9753 14.7564C18.9632 15.1166 18.9568 15.4509 18.9568 15.7582C18.9568 15.8477 18.9529 16.0173 18.9447 16.2682C18.9366 16.5195 18.9341 16.7136 18.9387 16.8509C18.9426 16.9886 18.9568 17.1529 18.9809 17.3428C19.0054 17.533 19.0519 17.6913 19.1208 17.8162C19.1892 17.9418 19.2804 18.0408 19.394 18.1136C19.4586 18.1303 19.5274 18.1462 19.6006 18.1626C19.6733 18.1785 19.7783 18.1345 19.916 18.0288C20.0534 17.9237 20.2074 17.7839 20.3774 17.61C20.5474 17.4365 20.7578 17.1653 21.0087 16.7966C21.2593 16.429 21.5347 15.9935 21.8342 15.4914C22.32 14.6496 22.753 13.7386 23.1334 12.7591C23.1657 12.6778 23.2062 12.6072 23.2548 12.5465C23.3034 12.4855 23.3478 12.4429 23.3882 12.4188L23.4368 12.3822C23.4528 12.3741 23.473 12.3641 23.4975 12.3521C23.522 12.3404 23.5745 12.3279 23.6554 12.3155C23.7364 12.3038 23.8173 12.3017 23.8985 12.3098L27.3956 12.285C27.7111 12.2449 27.9701 12.2548 28.1724 12.3152C28.3747 12.3758 28.5003 12.4429 28.5489 12.5157L28.622 12.637C28.808 13.1555 28.2011 14.3447 26.8008 16.2068C26.6063 16.4662 26.343 16.8105 26.0115 17.2392C25.3802 18.049 25.0161 18.5792 24.9195 18.8308C24.7811 19.1619 24.8379 19.4898 25.0888 19.8131Z" fill="#FBFBFB"/>
    </symbol>

    <symbol viewBox="0 0 35 35" fill="none" id="quiz-ut">
        
        <path d="M15.5142 20.0608L20.9336 17.1859L15.5142 14.3692V20.0608Z" fill="#FBFBFB"/>
        <path d="M17.5 0C7.83511 0 0 7.83511 0 17.5C0 27.1649 7.83511 35 17.5 35C27.1649 35 35 27.1649 35 17.5C35 7.83511 27.1649 0 17.5 0ZM27.271 21.5758C27.0378 23.0521 26.3242 23.8538 24.8234 24.0235C23.1462 24.213 19.3752 24.3003 17.6991 24.3003C15.9648 24.3003 12.4571 24.2275 10.7061 24.0817C9.20106 23.9564 8.17402 23.1157 7.96713 21.6195C7.81666 20.53 7.71942 19.235 7.71942 17.176C7.71942 14.8838 7.80211 13.9139 7.99623 12.8784C8.27339 11.4006 8.9789 10.6848 10.5894 10.5184C12.2793 10.3434 13.877 10.2561 17.4514 10.2561C19.1988 10.2561 22.9663 10.3466 24.7066 10.5038C26.2266 10.6412 27.0829 11.571 27.2706 13.0533C27.4016 14.0878 27.5184 15.5687 27.5184 17.1618C27.5187 19.9586 27.271 21.5758 27.271 21.5758Z" fill="#FBFBFB"/>
    </symbol>
    <!--  -->

    <symbol viewBox="0 0 16 19" fill="none" id="quiz-about">
    
        <line x1="8.11084" y1="0.333008" x2="8.11084" y2="17.2219" stroke="#BCBCBC" stroke-width="2"/>
        <path fill-rule="evenodd" clip-rule="evenodd" d="M8.03743 18.3025L8.32648 18.7415L15.3966 12.6701L14.2968 10.9997L8.03743 16.3748L1.7781 10.9997L0.678223 12.6701L7.74838 18.7415L8.03743 18.3025Z" fill="#BCBCBC"/>
    </symbol>

</svg>