<svg width="26" height="36" viewBox="0 0 26 36" fill="none" xmlns="http://www.w3.org/2000/svg">
<path d="M25.9977 13.0636C25.9291 10.3185 25.0489 7.66125 23.476 5.4505C21.9031 3.23975 19.7132 1.58191 17.2018 0.700703C16.8692 0.581943 16.5252 0.486935 16.1812 0.391928C15.8371 0.29692 15.4358 0.21379 15.0344 0.15441L14.3807 0.0712769C13.4962 -0.023759 12.6046 -0.023759 11.7202 0.0712769L11.0665 0.15441C10.6766 0.21379 10.2981 0.29692 9.91971 0.391928C9.54127 0.486935 9.23164 0.581943 8.89907 0.700703C6.36749 1.56248 4.15436 3.21223 2.5617 5.4248C0.969042 7.63736 0.0744465 10.305 0 13.0636C0 13.3011 0 13.5386 0 13.7761C0 14.0136 0 14.0136 0 14.1324C0.0476996 16.8039 0.84458 19.4034 2.29357 21.6142L12.7179 35.8654C12.7489 35.9072 12.7889 35.9412 12.8346 35.9645C12.8803 35.9879 12.9306 36 12.9816 36C13.0326 36 13.0829 35.9879 13.1287 35.9645C13.1744 35.9412 13.2143 35.9072 13.2454 35.8654L23.6812 21.6142C25.1301 19.4034 25.927 16.8039 25.9747 14.1324C25.9747 14.0136 25.9747 13.8949 25.9747 13.7761C25.9747 13.6574 26.0091 13.3011 25.9977 13.0636ZM19.4954 14.0255C19.4676 15.3606 19.0695 16.6592 18.3486 17.7664L17.9243 18.3484L13.1536 24.8801C13.1375 24.9001 13.1173 24.9161 13.0945 24.9272C13.0718 24.9382 13.0469 24.9439 13.0218 24.9439C12.9966 24.9439 12.9718 24.9382 12.949 24.9272C12.9262 24.9161 12.906 24.9001 12.8899 24.8801L8.02751 18.3009V18.2296L7.76375 17.8614L7.69494 17.7664C6.96863 16.6619 6.57001 15.3616 6.54815 14.0255C6.54248 13.9663 6.54248 13.9066 6.54815 13.8474C6.54815 13.7286 6.54815 13.6099 6.54815 13.4911C6.58174 12.1135 7.02483 10.7801 7.81701 9.67279C8.60919 8.56551 9.7119 7.73821 10.9748 7.30373L11.4793 7.14934C11.6678 7.09717 11.8594 7.0575 12.0527 7.03058H12.3738C12.5954 7.01875 12.8174 7.01875 13.039 7.03058C13.2605 7.01844 13.4825 7.01844 13.7041 7.03058H14.0367C14.2263 7.05755 14.414 7.09722 14.5986 7.14934L15.1147 7.30373C16.3663 7.75058 17.4564 8.58244 18.2392 9.6881C19.022 10.7938 19.4603 12.1206 19.4954 13.4911V14.0255Z" fill="white"/>
</svg>
